<?xml version="1.0"?>
<svg width="32cm" height="24cm" viewBox="0 0 320 240"
     xmlns="http://www.w3.org/2000/svg" version="1.2" baseProfile="tiny">
  <desc>Example line01 - lines expressed in user coordinates</desc>
  <!-- Show outline of canvas using 'rect' element -->
  <rect x="1" y="1" width="319" height="239"
        fill="none" stroke="black" stroke-width="1" />
  <!-- Day scale -->				  
  <g fill="lightgrey" stroke="black" stroke-width="0">
  <rect x="1" y="1" width="24" height="180"/>				
  <rect x="48" y="1" width="24" height="180"/>        
  <rect x="96" y="1" width="24" height="180"/>        
  <rect x="144" y="1" width="24" height="180"/>        
  <rect x="192" y="1" width="24" height="180"/>								
  </g>
  
  <!-- Level Scale -->
  <g stroke="grey" stroke-width="0.1">
    <line x1="0" y1="10" x2="240" y2="10"/>
	<line x1="0" y1="20" x2="240" y2="20"/>
	<line x1="0" y1="30" x2="240" y2="30"/>
	<line x1="0" y1="40" x2="240" y2="40"/>
	<line x1="0" y1="50" x2="240" y2="50"/>
	<line x1="0" y1="60" x2="240" y2="60"/>
	<line x1="0" y1="70" x2="240" y2="70"/>
	<line x1="0" y1="80" x2="240" y2="80"/>
	<line x1="0" y1="90" x2="240" y2="90"/>
  </g>  
  <g font-family="Verdana" font-size="6" fill="black" text-anchor="left">
    <text fill="blue" x="2"   y="8">Füllstand</text>
    <text x="242" y="12">90%</text>  
	<text x="242" y="22">80%</text>  
	<text x="242" y="32">70%</text>  
	<text x="242" y="42">60%</text>  
	<text x="242" y="52">50%</text>  
	<text x="242" y="62">40%</text>  
	<text x="242" y="72">30%</text>  
	<text x="242" y="82">20%</text>  
	<text x="242" y="92">10%</text>  
	<text x="242" y="102">0%</text>  
  </g>
  
  <!-- Rain Scale -->
  <g stroke="grey" stroke-width="0.1">  
    <line x1="0" y1="107" x2="240" y2="107"/>
	<line x1="0" y1="114" x2="240" y2="114"/>
	<line x1="0" y1="121" x2="240" y2="121"/>
	<line x1="0" y1="128" x2="240" y2="128"/>
	<line x1="0" y1="135" x2="240" y2="135"/>
	<line x1="0" y1="142" x2="240" y2="142"/>
	<line x1="0" y1="149" x2="240" y2="149"/>
	<line x1="0" y1="156" x2="240" y2="156"/>
	<line x1="0" y1="163" x2="240" y2="163"/>
  </g>  
   <g font-family="Verdana" font-size="6" fill="black" text-anchor="left">    	
    <text fill="blue" x="2"   y="107">Niederschlag</text>
	<text x="242" y="116">8 l/h</text>  
	<text x="242" y="130">6</text>  
	<text x="242" y="144">4</text>  
	<text x="242" y="158">2</text>  
	<text x="242" y="172">0</text>  
  </g>
    
  <!-- Level diagram -->		
  <rect x="1" y="1" width="239" height="99"
        fill="none" stroke="black" stroke-width="1" />		
  <!-- Rain diagram -->		
  <rect x="1" y="100" width="239" height="70"
        fill="none" stroke="black" stroke-width="1" />				

<!-- Day scale: Fill dynamically -->
<g font-family="Verdana" font-size="6" fill="black" text-anchor="middle">
<text x="228" y="180">0.</text>
<text x="204" y="180">-1.</text>
<text x="180" y="180">-2.</text>
<text x="156" y="180">-3.</text>
<text x="132" y="180">-4.</text>
<text x="108" y="180">-5.</text>
<text x="84" y="180">-6.</text>
<text x="60" y="180">-7.</text>
<text x="36" y="180">-8.</text>
<text x="12" y="180">-9.</text>
</g>
<!-- Level Line: Fill dynamically -->
<!-- Formula: y=216+hour()-nPoint, y=100-prcActual(nPoint) -->
<polyline fill="none" stroke="blue" stroke-width="1"points="
224,90 223,100 222,100 221,100 220,100 219,100 218,100 217,100 216,100 215,100 214,100 213,100 212,100 211,93 210,95 209,90 208,100 207,99 206,100 205,100 204,100 203,100 202,100 201,90 200,90 199,90 198,90 197,90 196,90 195,90 194,90 193,90 192,90 191,90 190,90 189,90 188,90 187,90 186,90 185,90 184,90 183,90 182,90 181,90 180,90 179,90 178,90 177,90 176,90 175,90 174,90 173,90 172,90 171,90 170,90 169,90 168,90 167,90 166,90 165,90 164,90 163,90 162,90 161,90 160,90 159,90 158,90 157,90 156,90 155,90 154,90 153,90 152,90 151,90 150,90 149,90 148,90 147,90 146,90 145,90 144,90 143,90 142,90 141,90 140,90 139,90 138,90 137,90 136,90 135,90 134,90 133,90 132,90 131,90 130,90 129,90 128,90 127,90 126,90 125,90 124,90 123,90 122,90 121,90 120,90 119,90 118,90 117,90 116,90 115,90 114,90 113,90 112,90 111,90 110,90 109,90 108,90 107,90 106,90 105,90 104,90 103,90 102,90 101,90 100,90 99,90 98,90 97,90 96,90 95,90 94,90 93,90 92,90 91,90 90,90 89,90 88,90 87,90 86,90 85,90 84,90 83,90 82,90 81,90 80,90 79,90 78,90 77,90 76,90 75,90 74,90 73,90 72,90 71,90 70,90 69,90 68,90 67,90 66,90 65,90 64,90 63,90 62,90 61,90 60,90 59,90 58,90 57,90 56,90 55,90 54,90 53,90 52,90 51,90 50,90 49,90 48,90 47,90 46,90 45,90 44,90 43,90 42,90 41,90 40,90 39,90 38,90 37,90 36,90 35,90 34,90 33,90 32,90 31,90 30,90 29,90 28,90 27,90 26,90 25,90 24,90 23,90 22,90 21,90 20,90 19,90 18,90 17,90 16,90 15,90 14,90 13,90 12,90 11,90 10,90 9,90 8,90 7,90 6,90 5,90 4,90 3,90 2,90 1,90 65535,90 65534,90 65533,90 65532,90 65531,90 65530,90 65529,90 65528,90 65527,90 65526,90 65525,90 65524,90 65523,90 65522,90 65521,90 "/>
<!-- Rain bar series: fill dynamically -->
<!-- Formula: y=216+hour()-nPoint, y=170-Rain(nPoint) -->
<g fill="none" stroke="blue" stroke-width="1">
<polyline points="224,170 224,124/>
<polyline points="223,170 223,100/>
<polyline points="222,170 222,100/>
<polyline points="221,170 221,100/>
<polyline points="220,170 220,100/>
<polyline points="219,170 219,100/>
<polyline points="218,170 218,100/>
<polyline points="217,170 217,100/>
<polyline points="216,170 216,100/>
<polyline points="215,170 215,100/>
<polyline points="214,170 214,100/>
<polyline points="213,170 213,100/>
<polyline points="212,170 212,100/>
<polyline points="211,170 211,100/>
<polyline points="210,170 210,100/>
<polyline points="209,170 209,100/>
<polyline points="208,170 208,100/>
<polyline points="207,170 207,100/>
<polyline points="206,170 206,100/>
<polyline points="205,170 205,100/>
<polyline points="204,170 204,100/>
<polyline points="203,170 203,100/>
<polyline points="202,170 202,100/>
<polyline points="201,170 201,170/>
<polyline points="200,170 200,170/>
<polyline points="199,170 199,170/>
<polyline points="198,170 198,170/>
<polyline points="197,170 197,170/>
<polyline points="196,170 196,170/>
<polyline points="195,170 195,163/>
<polyline points="194,170 194,165/>
<polyline points="193,170 193,160/>
<polyline points="192,170 192,170/>
<polyline points="191,170 191,169/>
<polyline points="190,170 190,170/>
<polyline points="189,170 189,170/>
<polyline points="188,170 188,170/>
<polyline points="187,170 187,170/>
<polyline points="186,170 186,170/>
<polyline points="185,170 185,100/>
<polyline points="184,170 184,100/>
<polyline points="183,170 183,100/>
<polyline points="182,170 182,100/>
<polyline points="181,170 181,100/>
<polyline points="180,170 180,100/>
<polyline points="179,170 179,100/>
<polyline points="178,170 178,100/>
<polyline points="177,170 177,112/>
<polyline points="176,170 176,100/>
<polyline points="175,170 175,100/>
<polyline points="174,170 174,100/>
<polyline points="173,170 173,119/>
<polyline points="172,170 172,100/>
<polyline points="171,170 171,100/>
<polyline points="170,170 170,100/>
<polyline points="169,170 169,100/>
<polyline points="168,170 168,100/>
<polyline points="167,170 167,100/>
<polyline points="166,170 166,100/>
<polyline points="165,170 165,100/>
<polyline points="164,170 164,100/>
<polyline points="163,170 163,100/>
<polyline points="162,170 162,100/>
<polyline points="161,170 161,100/>
<polyline points="160,170 160,100/>
<polyline points="159,170 159,100/>
<polyline points="158,170 158,100/>
<polyline points="157,170 157,100/>
<polyline points="156,170 156,100/>
<polyline points="155,170 155,100/>
<polyline points="154,170 154,100/>
<polyline points="153,170 153,100/>
<polyline points="152,170 152,136/>
<polyline points="151,170 151,100/>
<polyline points="150,170 150,100/>
<polyline points="149,170 149,128/>
<polyline points="148,170 148,100/>
<polyline points="147,170 147,100/>
<polyline points="146,170 146,100/>
<polyline points="145,170 145,100/>
<polyline points="144,170 144,100/>
<polyline points="143,170 143,100/>
<polyline points="142,170 142,117/>
<polyline points="141,170 141,100/>
<polyline points="140,170 140,100/>
<polyline points="139,170 139,100/>
<polyline points="138,170 138,134/>
<polyline points="137,170 137,113/>
<polyline points="136,170 136,100/>
<polyline points="135,170 135,165/>
<polyline points="134,170 134,100/>
<polyline points="133,170 133,100/>
<polyline points="132,170 132,100/>
<polyline points="131,170 131,102/>
<polyline points="130,170 130,100/>
<polyline points="129,170 129,135/>
<polyline points="128,170 128,100/>
<polyline points="127,170 127,100/>
<polyline points="126,170 126,100/>
<polyline points="125,170 125,100/>
<polyline points="124,170 124,100/>
<polyline points="123,170 123,100/>
<polyline points="122,170 122,143/>
<polyline points="121,170 121,100/>
<polyline points="120,170 120,100/>
<polyline points="119,170 119,100/>
<polyline points="118,170 118,100/>
<polyline points="117,170 117,100/>
<polyline points="116,170 116,100/>
<polyline points="115,170 115,100/>
<polyline points="114,170 114,142/>
<polyline points="113,170 113,100/>
<polyline points="112,170 112,100/>
<polyline points="111,170 111,100/>
<polyline points="110,170 110,131/>
<polyline points="109,170 109,100/>
<polyline points="108,170 108,100/>
<polyline points="107,170 107,116/>
<polyline points="106,170 106,100/>
<polyline points="105,170 105,100/>
<polyline points="104,170 104,100/>
<polyline points="103,170 103,100/>
<polyline points="102,170 102,100/>
<polyline points="101,170 101,100/>
<polyline points="100,170 100,100/>
<polyline points="99,170 99,127/>
<polyline points="98,170 98,100/>
<polyline points="97,170 97,100/>
<polyline points="96,170 96,100/>
<polyline points="95,170 95,100/>
<polyline points="94,170 94,100/>
<polyline points="93,170 93,155/>
<polyline points="92,170 92,100/>
<polyline points="91,170 91,100/>
<polyline points="90,170 90,100/>
<polyline points="89,170 89,100/>
<polyline points="88,170 88,169/>
<polyline points="87,170 87,100/>
<polyline points="86,170 86,100/>
<polyline points="85,170 85,100/>
<polyline points="84,170 84,144/>
<polyline points="83,170 83,100/>
<polyline points="82,170 82,100/>
<polyline points="81,170 81,100/>
<polyline points="80,170 80,100/>
<polyline points="79,170 79,100/>
<polyline points="78,170 78,100/>
<polyline points="77,170 77,100/>
<polyline points="76,170 76,100/>
<polyline points="75,170 75,116/>
<polyline points="74,170 74,100/>
<polyline points="73,170 73,100/>
<polyline points="72,170 72,100/>
<polyline points="71,170 71,100/>
<polyline points="70,170 70,100/>
<polyline points="69,170 69,100/>
<polyline points="68,170 68,100/>
<polyline points="67,170 67,100/>
<polyline points="66,170 66,100/>
<polyline points="65,170 65,100/>
<polyline points="64,170 64,100/>
<polyline points="63,170 63,100/>
<polyline points="62,170 62,125/>
<polyline points="61,170 61,164/>
<polyline points="60,170 60,100/>
<polyline points="59,170 59,159/>
<polyline points="58,170 58,100/>
<polyline points="57,170 57,100/>
<polyline points="56,170 56,100/>
<polyline points="55,170 55,111/>
<polyline points="54,170 54,100/>
<polyline points="53,170 53,100/>
<polyline points="52,170 52,100/>
<polyline points="51,170 51,100/>
<polyline points="50,170 50,100/>
<polyline points="49,170 49,100/>
<polyline points="48,170 48,100/>
<polyline points="47,170 47,100/>
<polyline points="46,170 46,100/>
<polyline points="45,170 45,100/>
<polyline points="44,170 44,100/>
<polyline points="43,170 43,100/>
<polyline points="42,170 42,106/>
<polyline points="41,170 41,139/>
<polyline points="40,170 40,100/>
<polyline points="39,170 39,100/>
<polyline points="38,170 38,100/>
<polyline points="37,170 37,100/>
<polyline points="36,170 36,100/>
<polyline points="35,170 35,100/>
<polyline points="34,170 34,100/>
<polyline points="33,170 33,100/>
<polyline points="32,170 32,100/>
<polyline points="31,170 31,100/>
<polyline points="30,170 30,109/>
<polyline points="29,170 29,100/>
<polyline points="28,170 28,100/>
<polyline points="27,170 27,155/>
<polyline points="26,170 26,114/>
<polyline points="25,170 25,100/>
<polyline points="24,170 24,100/>
<polyline points="23,170 23,165/>
<polyline points="22,170 22,100/>
<polyline points="21,170 21,135/>
<polyline points="20,170 20,100/>
<polyline points="19,170 19,100/>
<polyline points="18,170 18,100/>
<polyline points="17,170 17,146/>
<polyline points="16,170 16,100/>
<polyline points="15,170 15,100/>
<polyline points="14,170 14,100/>
<polyline points="13,170 13,115/>
<polyline points="12,170 12,100/>
<polyline points="11,170 11,123/>
<polyline points="10,170 10,100/>
<polyline points="9,170 9,100/>
<polyline points="8,170 8,100/>
<polyline points="7,170 7,100/>
<polyline points="6,170 6,100/>
<polyline points="5,170 5,100/>
<polyline points="4,170 4,100/>
<polyline points="3,170 3,100/>
<polyline points="2,170 2,100/>
<polyline points="1,170 1,100/>
<polyline points="65535,170 65535,100/>
<polyline points="65534,170 65534,130/>
<polyline points="65533,170 65533,100/>
<polyline points="65532,170 65532,100/>
<polyline points="65531,170 65531,100/>
<polyline points="65530,170 65530,100/>
<polyline points="65529,170 65529,100/>
<polyline points="65528,170 65528,100/>
<polyline points="65527,170 65527,100/>
<polyline points="65526,170 65526,100/>
<polyline points="65525,170 65525,118/>
<polyline points="65524,170 65524,100/>
<polyline points="65523,170 65523,100/>
<polyline points="65522,170 65522,100/>
<polyline points="65521,170 65521,100/>
</g>
</svg>

